<svg width="419" height="58" viewBox="0 0 419 58" fill="none" xmlns="http://www.w3.org/2000/svg">
<g clip-path="url(#clip0_2_506)">
<path d="M93.3227 55.832H87.0987V34.328C87.0987 32.2267 85.12 28.0133 80.4053 28.0133C76.864 28.0133 74.1387 31.2613 74.1387 34.6267C74.1387 37.592 76.8427 41.2933 81.6693 41.2933C83.3333 41.2933 84.5493 40.5733 84.5493 40.5733V46.5893C84.5493 46.5893 83.0667 47.2667 80.88 47.2667C76.3947 47.2667 74.1173 45.912 71.408 43.432C69.152 41.3627 67.8027 36.9893 67.8027 34.552C67.8027 32.12 69.0667 27.928 71.1413 25.896C73.216 23.8693 76.1013 21.704 80.6987 21.704C85.296 21.704 88.272 24.3173 90.2133 26.2587C93.28 29.32 93.3227 35.9547 93.3227 35.9547V55.832ZM114.016 29.3627V13.8213H120.24V16.4347C120.24 16.4347 122.624 14.584 125.963 13.4587C129.296 12.3333 133.536 11.88 133.536 11.88V15.3093C133.536 15.3093 135.296 14.9893 136.96 14.856C138.629 14.7227 140.747 14.7653 140.747 14.7653V19.1867C140.747 19.1867 139.669 19.1867 138.539 19.2293C137.419 19.272 135.744 19.544 135.744 19.544L140.795 20.984L140.843 25.768L143.813 21.8907L148.635 23.512L145.797 19.4053L160 1.96533V8.77067L151.211 19.7253L159.008 31.0853L145.344 26.936L136.379 37.9867L136.325 24.1413L133.536 23.24V25.8533C133.536 25.8533 127.984 26.168 124.427 30.0027C119.92 34.872 120.283 40.056 120.283 40.056V55.8427H114.016V40.1413C114.016 37.6613 114.304 32.4347 119.424 26.888C123.387 22.5947 129.392 20.7973 129.392 20.7973L137.499 23.3253L137.456 34.9573L144.987 25.5813L156.528 29.32L149.899 19.6293L158.965 8.45067V4.97333L147.2 19.496L151.072 25.2613L144.219 23.192L139.579 28.8667L139.531 21.704C139.531 21.704 133.808 19.8107 131.328 19.3147C132.891 18.8517 134.489 18.5199 136.107 18.3227C138.043 18.1413 139.531 18.1413 139.531 18.1413V15.7947C139.531 15.7947 134.347 15.768 128.757 17.6933C124.188 19.3211 120.044 21.9549 116.629 25.4C114.869 27.2027 114.016 29.3627 114.016 29.3627ZM104.816 13.816H110.949V55.8427H104.816V13.816Z" fill="white"/>
<path d="M96.3893 55.832H102.565V33.6987C102.565 28.5094 100.443 23.3254 95.5307 18.4134C90.6187 13.496 83.7227 12.4187 80.3413 12.4187C76.9547 12.4187 71.232 13.7734 67.8933 16.3814C64.56 19 58.4267 24.0454 58.4267 34.9094C58.4267 44.0667 64.576 50.8507 69.3813 53.624C73.1573 55.8 76.5973 56.5574 80.9707 56.5574C84.0373 56.5574 84.5333 56.0987 84.5333 56.0987V49.7894C84.5333 49.7894 83.2213 50.2854 80.9227 50.2854C78.6293 50.2854 75.472 50.104 71.9093 47.7627C69.7183 46.3104 67.9264 44.3319 66.6975 42.0082C65.4686 39.6845 64.8419 37.0898 64.8747 34.4614C64.8747 28.0134 68.48 23.64 71.904 21.2987C75.3333 18.952 79.0293 18.6854 80.7413 18.6854C82.4587 18.6854 87.4613 19.2667 91.3813 23.192C95.3067 27.112 96.3893 31.304 96.3893 37.8V55.832ZM42.9493 37.8C42.9493 42.3974 43.2373 43.8427 44.4053 45.0107C45.7173 46.3227 46.432 47.0907 51.0347 47.0907H58.4267V41.224C58.4267 41.224 55.4933 41.1814 52.3893 41.1814C49.3653 41.1814 49.2747 40.3227 49.2747 38.1574V28.2427H58.4267V22.52H42.9493V37.8Z" fill="white"/>
<path d="M33.632 22.5147H39.8987V39.5547C39.8987 44.0667 41.1627 45.912 42.288 47.128C43.4133 48.3493 45.44 50.104 50.6293 50.104H58.4266V55.9174C58.4266 55.9174 51.8933 55.832 47.7013 55.832C44.992 55.832 40.2613 54.2533 37.1467 50.552C34.9286 47.8385 33.6903 44.4563 33.632 40.952V22.5147ZM42.9706 0.472008H49.2693V13.8587H58.4693V19.496H42.9706V0.472008ZM33.632 0.466675H39.9893V19.5387H33.632V0.466675ZM30.6133 28.2427V22.4667H12.3093C9.51465 22.4667 8.90132 23.7413 8.69865 24.408C7.97865 26.7973 12.0373 29.5013 15.328 31.9813C18.6187 34.4613 21.9306 36.9627 23.4453 38.4773C25.0666 40.0987 27.28 42.8667 25.968 46.136C24.528 49.7467 21.056 49.9707 18.2133 49.9707H0.773315V55.832H17.808C23.76 55.832 27.456 54.6107 30.3893 50.0613C32.9866 46.024 32.064 41.1547 30.7466 38.8773C28.9013 35.6773 26.1493 33.24 23.04 31.1707C20.6026 29.544 20 29.3627 20.1973 28.648C20.3306 28.152 22.128 28.232 22.128 28.232L30.6133 28.2427Z" fill="white"/>
<path d="M30.704 19.4694V13.736L12.0373 13.7307C6.75733 13.7307 0 17.4267 0 25.4107C0 33.3894 7.89333 37.0747 11.36 39.8374C11.8613 40.232 12.2133 41.2347 10.7307 41.2347H0.757333V47.0001H15.7333C21.328 47.0001 22.1867 46.6854 22.9867 44.9734C23.5573 43.7841 23.3973 42.5414 20.5547 39.9707C17.7173 37.4 11.7707 33.0267 10.1013 31.8107C8.432 30.5947 5.14133 27.6187 5.68 24.504C6.224 21.3947 8.112 19.5014 12.2187 19.5014C16.4747 19.5014 30.704 19.4747 30.704 19.4747" fill="white"/>
</g>
<g clip-path="url(#clip1_2_506)">
<path d="M274.238 31.3983L266.284 9.66014H259L271.159 39.465H277.264L289.365 9.66014H282.251L274.238 31.3983ZM313.794 24.5628C313.794 29.7773 310.319 34.0337 304.83 34.0337C299.564 34.0337 295.806 29.719 295.806 24.4527C295.806 19.2403 299.283 14.9835 304.717 14.9835C310.039 14.9835 313.794 19.2985 313.794 24.5628ZM320.572 24.4527C320.572 15.9363 313.907 9.04297 304.831 9.04297C295.753 9.04297 289.028 16.048 289.028 24.5632C289.028 33.027 295.697 39.9175 304.717 39.9175C313.851 39.9175 320.572 32.9122 320.572 24.4527ZM350.83 9.66014H343.769L336.094 31.6244L327.687 9.66014H320.46L332.788 39.243C331.666 41.8213 330.49 42.6621 328.587 42.6621C327.186 42.6621 325.838 42.2128 324.608 41.5394L322.31 46.5829C324.383 47.7032 326.455 48.3754 329.312 48.3754C334.076 48.3754 336.711 46.1363 339.063 40.0818L350.83 9.66014ZM374.417 30.5029V30.3912C374.417 25.0683 369.542 23.106 365.227 21.7628C361.753 20.6413 358.561 19.745 358.561 17.618V17.5064C358.561 15.7709 360.071 14.5361 362.706 14.5361C365.172 14.5361 368.197 15.6006 371.054 17.3357L373.744 12.5176C370.607 10.4464 366.573 9.1554 362.874 9.1554C356.993 9.1554 352.339 12.5742 352.339 18.1802V18.2882C352.339 23.9484 357.215 25.7405 361.584 26.9721C365.058 28.0382 368.197 28.8224 368.197 31.1196V31.2309C368.197 33.19 366.514 34.4236 363.602 34.4236C360.575 34.4236 357.105 33.19 353.909 30.7808L350.883 35.3757C354.581 38.2897 359.232 39.8027 363.435 39.8027C369.6 39.8035 374.417 36.722 374.417 30.5029Z" fill="white"/>
<path d="M382.356 10.9683C384.677 8.64832 384.677 8.64832 386.997 8.64832H411.125C412.971 8.64832 413.351 8.6527 414.591 9.82126L411.602 14.9915H378.334C378.333 14.9915 379.497 13.8321 382.356 10.9683Z" fill="white"/>
<path d="M417.448 12.6743C415.126 10.3539 414.591 9.82166 414.591 9.82166L398.542 37.5613L399.894 39.9012H401.757C404.077 39.9012 404.91 39.9012 406.397 37.5769C407.739 35.4877 418.714 16.2633 418.714 16.2633C419.473 14.698 418.606 13.8365 417.448 12.6743Z" fill="white"/>
<path d="M385.489 14.9915H378.333C378.472 15.1968 391.334 37.5757 391.334 37.5757C392.363 39.3945 394.061 39.9 396.15 39.9H399.894L385.489 14.9915Z" fill="white"/>
<path d="M378.333 14.9915C378.333 14.9915 385.489 14.9915 391.304 25.0448L385.489 14.9915H378.333Z" fill="white"/>
<path d="M399.894 39.9013L398.542 37.5613L403.618 28.7858C403.619 28.7858 398.47 37.6897 399.894 39.9013Z" fill="white"/>
<path d="M414.591 9.82117L411.602 14.9914H396.32C396.32 14.9914 409.477 14.9364 414.591 9.82117Z" fill="white"/>
</g>
<defs>
<clipPath id="clip0_2_506">
<rect width="160" height="57.024" fill="white"/>
</clipPath>
<clipPath id="clip1_2_506">
<rect width="160" height="39.744" fill="white" transform="translate(259 8.64001)"/>
</clipPath>
</defs>
</svg>
