<svg width="419" height="58" viewBox="0 0 419 58" fill="none" xmlns="http://www.w3.org/2000/svg">
<g clip-path="url(#clip0_2_491)">
<path d="M15.2375 31.3983L7.28367 9.66014H0L12.1593 39.465H18.2644L30.3651 9.66014H23.2508L15.2375 31.3983ZM54.794 24.5628C54.794 29.7773 51.3194 34.0337 45.8302 34.0337C40.5635 34.0337 36.8063 29.719 36.8063 24.4527C36.8063 19.2403 40.2833 14.9835 45.717 14.9835C51.0391 14.9835 54.794 19.2985 54.794 24.5628ZM61.5717 24.4527C61.5717 15.9363 54.9072 9.04297 45.8307 9.04297C36.7533 9.04297 30.0282 16.048 30.0282 24.5632C30.0282 33.027 36.6974 39.9175 45.717 39.9175C54.8506 39.9175 61.5717 32.9122 61.5717 24.4527ZM91.8299 9.66014H84.7687L77.0936 31.6244L68.6872 9.66014H61.4601L73.7876 39.243C72.6665 41.8213 71.49 42.6621 69.5866 42.6621C68.1864 42.6621 66.8376 42.2128 65.6081 41.5394L63.3104 46.5829C65.3832 47.7032 67.4552 48.3754 70.3122 48.3754C75.0758 48.3754 77.7111 46.1363 80.0634 40.0818L91.8299 9.66014ZM115.417 30.5029V30.3912C115.417 25.0683 110.542 23.106 106.227 21.7628C102.753 20.6413 99.5613 19.745 99.5613 17.618V17.5064C99.5613 15.7709 101.071 14.5361 103.706 14.5361C106.172 14.5361 109.197 15.6006 112.054 17.3357L114.744 12.5176C111.607 10.4464 107.573 9.1554 103.874 9.1554C97.9925 9.1554 93.339 12.5742 93.339 18.1802V18.2882C93.339 23.9484 98.2146 25.7405 102.584 26.9721C106.058 28.0382 109.197 28.8224 109.197 31.1196V31.2309C109.197 33.19 107.514 34.4236 104.602 34.4236C101.575 34.4236 98.1045 33.19 94.909 30.7808L91.8834 35.3757C95.5812 38.2897 100.232 39.8027 104.435 39.8027C110.6 39.8035 115.417 36.722 115.417 30.5029Z" fill="white"/>
<path d="M123.356 10.9683C125.677 8.64832 125.677 8.64832 127.997 8.64832H152.125C153.971 8.64832 154.351 8.6527 155.591 9.82126L152.602 14.9915H119.334C119.333 14.9915 120.497 13.8321 123.356 10.9683Z" fill="white"/>
<path d="M158.448 12.6743C156.126 10.3539 155.591 9.82166 155.591 9.82166L139.542 37.5613L140.894 39.9012H142.757C145.077 39.9012 145.91 39.9012 147.397 37.5769C148.739 35.4877 159.714 16.2633 159.714 16.2633C160.473 14.698 159.606 13.8365 158.448 12.6743Z" fill="white"/>
<path d="M126.489 14.9915H119.333C119.472 15.1968 132.334 37.5757 132.334 37.5757C133.363 39.3945 135.061 39.9 137.15 39.9H140.894L126.489 14.9915Z" fill="white"/>
<path d="M119.333 14.9915C119.333 14.9915 126.489 14.9915 132.304 25.0448L126.489 14.9915H119.333Z" fill="white"/>
<path d="M140.894 39.9013L139.542 37.5613L144.618 28.7858C144.619 28.7858 139.47 37.6897 140.894 39.9013Z" fill="white"/>
<path d="M155.591 9.82117L152.602 14.9914H137.32C137.32 14.9914 150.477 14.9364 155.591 9.82117Z" fill="white"/>
</g>
<g clip-path="url(#clip1_2_491)">
<path d="M352.323 55.8319H346.099V34.3279C346.099 32.2265 344.12 28.0132 339.405 28.0132C335.864 28.0132 333.139 31.2612 333.139 34.6265C333.139 37.5919 335.843 41.2932 340.669 41.2932C342.333 41.2932 343.549 40.5732 343.549 40.5732V46.5892C343.549 46.5892 342.067 47.2665 339.88 47.2665C335.395 47.2665 333.117 45.9119 330.408 43.4319C328.152 41.3625 326.803 36.9892 326.803 34.5519C326.803 32.1199 328.067 27.9279 330.141 25.8959C332.216 23.8692 335.101 21.7039 339.699 21.7039C344.296 21.7039 347.272 24.3172 349.213 26.2585C352.28 29.3199 352.323 35.9545 352.323 35.9545V55.8319ZM373.016 29.3625V13.8212H379.24V16.4345C379.24 16.4345 381.624 14.5839 384.963 13.4585C388.296 12.3332 392.536 11.8799 392.536 11.8799V15.3092C392.536 15.3092 394.296 14.9892 395.96 14.8559C397.629 14.7225 399.747 14.7652 399.747 14.7652V19.1865C399.747 19.1865 398.669 19.1865 397.539 19.2292C396.419 19.2719 394.744 19.5439 394.744 19.5439L399.795 20.9839L399.843 25.7679L402.813 21.8905L407.635 23.5119L404.797 19.4052L419 1.96521V8.77054L410.211 19.7252L418.008 31.0852L404.344 26.9359L395.379 37.9865L395.325 24.1412L392.536 23.2399V25.8532C392.536 25.8532 386.984 26.1679 383.427 30.0025C378.92 34.8719 379.283 40.0559 379.283 40.0559V55.8426H373.016V40.1412C373.016 37.6612 373.304 32.4345 378.424 26.8879C382.387 22.5945 388.392 20.7972 388.392 20.7972L396.499 23.3252L396.456 34.9572L403.987 25.5812L415.528 29.3199L408.899 19.6292L417.965 8.45054V4.97321L406.2 19.4959L410.072 25.2612L403.219 23.1919L398.579 28.8665L398.531 21.7039C398.531 21.7039 392.808 19.8105 390.328 19.3145C391.891 18.8516 393.489 18.5198 395.107 18.3225C397.043 18.1412 398.531 18.1412 398.531 18.1412V15.7945C398.531 15.7945 393.347 15.7679 387.757 17.6932C383.188 19.321 379.044 21.9548 375.629 25.3999C373.869 27.2025 373.016 29.3625 373.016 29.3625ZM363.816 13.8159H369.949V55.8426H363.816V13.8159Z" fill="white"/>
<path d="M355.389 55.8319H361.565V33.6986C361.565 28.5092 359.443 23.3252 354.531 18.4132C349.619 13.4959 342.723 12.4186 339.341 12.4186C335.955 12.4186 330.232 13.7732 326.893 16.3812C323.56 18.9999 317.427 24.0452 317.427 34.9092C317.427 44.0666 323.576 50.8506 328.381 53.6239C332.157 55.7999 335.597 56.5572 339.971 56.5572C343.037 56.5572 343.533 56.0986 343.533 56.0986V49.7892C343.533 49.7892 342.221 50.2852 339.923 50.2852C337.629 50.2852 334.472 50.1039 330.909 47.7626C328.718 46.3103 326.926 44.3318 325.697 42.0081C324.469 39.6844 323.842 37.0897 323.875 34.4612C323.875 28.0132 327.48 23.6399 330.904 21.2986C334.333 18.9519 338.029 18.6852 339.741 18.6852C341.459 18.6852 346.461 19.2666 350.381 23.1919C354.307 27.1119 355.389 31.3039 355.389 37.7999V55.8319ZM301.949 37.7999C301.949 42.3972 302.237 43.8426 303.405 45.0106C304.717 46.3226 305.432 47.0906 310.035 47.0906H317.427V41.2239C317.427 41.2239 314.493 41.1812 311.389 41.1812C308.365 41.1812 308.275 40.3226 308.275 38.1572V28.2426H317.427V22.5199H301.949V37.7999Z" fill="white"/>
<path d="M292.632 22.5146H298.899V39.5546C298.899 44.0666 300.163 45.9119 301.288 47.1279C302.413 48.3492 304.44 50.1039 309.629 50.1039H317.427V55.9172C317.427 55.9172 310.893 55.8319 306.701 55.8319C303.992 55.8319 299.261 54.2532 296.147 50.5519C293.929 47.8383 292.69 44.4561 292.632 40.9519V22.5146ZM301.971 0.471886H308.269V13.8586H317.469V19.4959H301.971V0.471886ZM292.632 0.466553H298.989V19.5386H292.632V0.466553ZM289.613 28.2426V22.4666H271.309C268.515 22.4666 267.901 23.7412 267.699 24.4079C266.979 26.7972 271.037 29.5012 274.328 31.9812C277.619 34.4612 280.931 36.9626 282.445 38.4772C284.067 40.0986 286.28 42.8666 284.968 46.1359C283.528 49.7466 280.056 49.9706 277.213 49.9706H259.773V55.8319H276.808C282.76 55.8319 286.456 54.6106 289.389 50.0612C291.987 46.0239 291.064 41.1546 289.747 38.8772C287.901 35.6772 285.149 33.2399 282.04 31.1706C279.603 29.5439 279 29.3626 279.197 28.6479C279.331 28.1519 281.128 28.2319 281.128 28.2319L289.613 28.2426Z" fill="white"/>
<path d="M289.704 19.4693V13.7359L271.037 13.7306C265.757 13.7306 259 17.4266 259 25.4106C259 33.3893 266.893 37.0746 270.36 39.8373C270.861 40.2319 271.213 41.2346 269.731 41.2346H259.757V46.9999H274.733C280.328 46.9999 281.187 46.6853 281.987 44.9733C282.557 43.7839 282.397 42.5413 279.555 39.9706C276.717 37.3999 270.771 33.0266 269.101 31.8106C267.432 30.5946 264.141 27.6186 264.68 24.5039C265.224 21.3946 267.112 19.5013 271.219 19.5013C275.475 19.5013 289.704 19.4746 289.704 19.4746" fill="white"/>
</g>
<defs>
<clipPath id="clip0_2_491">
<rect width="160" height="39.744" fill="white" transform="translate(0 8.64001)"/>
</clipPath>
<clipPath id="clip1_2_491">
<rect width="160" height="57.024" fill="white" transform="translate(259)"/>
</clipPath>
</defs>
</svg>
